<?xml version="1.0" standalone="no"?>
<!DOCTYPE svg PUBLIC "-//W3C//DTD SVG 1.1//EN"
  "http://www.w3.org/Graphics/SVG/1.1/DTD/svg11.dtd"> 
<svg viewBox = "0 0 1019 800" version = "1.1">
  <path d="M2.0,59.0
           a2438,2438 0 0,1 1016,0
           l-26,122
           a2313,2313 0 0,0 -964,0
           l-26,-122
          "
        fill="#f1f1db" stroke="#777777" />
  <path d=" M35.35534706243271,52.16613726561309 L59.58856347637692,174.7946462765076 M68.80287822299528,45.79875815086052 L91.32118840434293,168.75373245680976 M102.33606991165328,39.89910454242681 L123.13508191372188,163.15656313921045 M135.9483818512366,34.468327102323656 L155.0240390573873,158.00422998951444 M169.6332583330476,29.507485043466204 L186.9818402478831,153.2977379131662 M203.38412949547853,25.017545923083617 L219.00225247048473,149.03800485925103 M237.19441260539304,20.999385454010735 L251.07903049888188,145.22586164146378 M271.05751334201136,17.453787333886794 L283.2059181132372,141.86205177606325 M304.9668270830622,14.381443092306199 L315.3766493203949,138.94723133686057 M338.9157401929399,11.78295195594228 L347.5849495759926,136.4819688272587 M372.89763131262134,9.65882073167495 L379.8245370082417,134.46674506937097 M406.9058726510881,8.00946370774409 L412.0891236431365,132.90195311024354 M440.9338312780039,6.835202572945946 L444.3724166308544,131.78789814519496 M474.97487041739396,6.136266353893461 L476.6681194731059,131.1247974582925 M509.0223507420741,5.912791370345076 L508.9699332511966,130.91278037997108 M543.06963166858,6.164821208617468 L541.2715578545633,131.15188826181065 M577.1100726523359,6.892306713086327 L573.5666932095378,131.8420744684704 M611.1370344828222,8.095105995771519 L605.8490405081081,132.98320438678456 M645.1438805784778,9.772984464011188 L638.1123034364311,134.57505545201775 M679.1239782810932,11.925614866217074 L670.3501894028583,136.61731719127238 M713.0707001494361,14.552577355701033 L702.5564107652363,139.10959128404374 M746.9774252518607,17.653359572561385 L734.7246860572411,142.05139163990816 M780.8375404576468,21.2273567436132 L766.8487412135099,145.44214449333003 M814.6444417268176,25.27387180034202 L798.922310793326,149.281188515567 M848.3915353981843,29.792115514860143 L830.9391392026253,153.56777494365588 M882.0722394753668,34.78120665383676 L862.8929819140785,158.30106772645058 M915.6799849105404,40.24017215037202 L894.7776066850205,163.48014368768327 M949.2082168856527,46.16794729378353 L926.5867947729757,169.10399270602238 M982.6503960908708,52.56337593726539 L958.3143421485579,175.17151791208244" stroke="#777777" />
  <path d="M2.0,213.0
           a2438,2438 0 0,1 1016,0
           l-26,122
           a2313,2313 0 0,0 -964,0
           l-26,-122
          "
        fill="#f1f1db" stroke="#777777" />
  <path d=" M35.35534706243271,206.1661372656131 L59.58856347637692,328.7946462765076 M68.80287822299528,199.79875815086052 L91.32118840434293,322.75373245680976 M102.33606991165328,193.8991045424268 L123.13508191372188,317.15656313921045 M135.9483818512366,188.46832710232366 L155.0240390573873,312.00422998951444 M169.6332583330476,183.5074850434662 L186.9818402478831,307.2977379131662 M203.38412949547853,179.01754592308362 L219.00225247048473,303.03800485925103 M237.19441260539304,174.99938545401073 L251.07903049888188,299.2258616414638 M271.05751334201136,171.4537873338868 L283.2059181132372,295.86205177606325 M304.9668270830622,168.3814430923062 L315.3766493203949,292.94723133686057 M338.9157401929399,165.78295195594228 L347.5849495759926,290.4819688272587 M372.89763131262134,163.65882073167495 L379.8245370082417,288.466745069371 M406.9058726510881,162.0094637077441 L412.0891236431365,286.90195311024354 M440.9338312780039,160.83520257294595 L444.3724166308544,285.78789814519496 M474.97487041739396,160.13626635389346 L476.6681194731059,285.1247974582925 M509.0223507420741,159.91279137034508 L508.9699332511966,284.9127803799711 M543.06963166858,160.16482120861747 L541.2715578545633,285.15188826181065 M577.1100726523359,160.89230671308633 L573.5666932095378,285.8420744684704 M611.1370344828222,162.09510599577152 L605.8490405081081,286.98320438678456 M645.1438805784778,163.7729844640112 L638.1123034364311,288.57505545201775 M679.1239782810932,165.92561486621707 L670.3501894028583,290.6173171912724 M713.0707001494361,168.55257735570103 L702.5564107652363,293.10959128404374 M746.9774252518607,171.65335957256138 L734.7246860572411,296.05139163990816 M780.8375404576468,175.2273567436132 L766.8487412135099,299.44214449333003 M814.6444417268176,179.27387180034202 L798.922310793326,303.281188515567 M848.3915353981843,183.79211551486014 L830.9391392026253,307.5677749436559 M882.0722394753668,188.78120665383676 L862.8929819140785,312.3010677264506 M915.6799849105404,194.24017215037202 L894.7776066850205,317.48014368768327 M949.2082168856527,200.16794729378353 L926.5867947729757,323.1039927060224 M982.6503960908708,206.5633759372654 L958.3143421485579,329.17151791208244" stroke="#777777" />
  <path d="M2.0,367.0
           a2438,2438 0 0,1 1016,0
           l-26,122
           a2313,2313 0 0,0 -964,0
           l-26,-122
          "
        fill="#f1f1db" stroke="#777777" />
  <path d=" M35.35534706243271,360.1661372656131 L59.58856347637692,482.7946462765076 M68.80287822299528,353.7987581508605 L91.32118840434293,476.75373245680976 M102.33606991165328,347.8991045424268 L123.13508191372188,471.15656313921045 M135.9483818512366,342.46832710232366 L155.0240390573873,466.00422998951444 M169.6332583330476,337.5074850434662 L186.9818402478831,461.2977379131662 M203.38412949547853,333.0175459230836 L219.00225247048473,457.03800485925103 M237.19441260539304,328.99938545401073 L251.07903049888188,453.2258616414638 M271.05751334201136,325.4537873338868 L283.2059181132372,449.86205177606325 M304.9668270830622,322.3814430923062 L315.3766493203949,446.94723133686057 M338.9157401929399,319.7829519559423 L347.5849495759926,444.4819688272587 M372.89763131262134,317.65882073167495 L379.8245370082417,442.466745069371 M406.9058726510881,316.0094637077441 L412.0891236431365,440.90195311024354 M440.9338312780039,314.83520257294595 L444.3724166308544,439.78789814519496 M474.97487041739396,314.13626635389346 L476.6681194731059,439.1247974582925 M509.0223507420741,313.9127913703451 L508.9699332511966,438.9127803799711 M543.06963166858,314.16482120861747 L541.2715578545633,439.15188826181065 M577.1100726523359,314.8923067130863 L573.5666932095378,439.8420744684704 M611.1370344828222,316.0951059957715 L605.8490405081081,440.98320438678456 M645.1438805784778,317.7729844640112 L638.1123034364311,442.57505545201775 M679.1239782810932,319.9256148662171 L670.3501894028583,444.6173171912724 M713.0707001494361,322.55257735570103 L702.5564107652363,447.10959128404374 M746.9774252518607,325.6533595725614 L734.7246860572411,450.05139163990816 M780.8375404576468,329.2273567436132 L766.8487412135099,453.44214449333003 M814.6444417268176,333.273871800342 L798.922310793326,457.281188515567 M848.3915353981843,337.79211551486014 L830.9391392026253,461.5677749436559 M882.0722394753668,342.78120665383676 L862.8929819140785,466.3010677264506 M915.6799849105404,348.240172150372 L894.7776066850205,471.48014368768327 M949.2082168856527,354.1679472937835 L926.5867947729757,477.1039927060224 M982.6503960908708,360.5633759372654 L958.3143421485579,483.17151791208244" stroke="#777777" />
  <path d="M2.0,521.0
           a2438,2438 0 0,1 1016,0
           l-26,122
           a2313,2313 0 0,0 -964,0
           l-26,-122
          "
        fill="#f1f1db" stroke="#777777" />
  <path d=" M35.35534706243271,514.1661372656131 L59.58856347637692,636.7946462765076 M68.80287822299528,507.7987581508605 L91.32118840434293,630.7537324568098 M102.33606991165328,501.8991045424268 L123.13508191372188,625.1565631392104 M135.9483818512366,496.46832710232366 L155.0240390573873,620.0042299895144 M169.6332583330476,491.5074850434662 L186.9818402478831,615.2977379131662 M203.38412949547853,487.0175459230836 L219.00225247048473,611.038004859251 M237.19441260539304,482.99938545401073 L251.07903049888188,607.2258616414638 M271.05751334201136,479.4537873338868 L283.2059181132372,603.8620517760633 M304.9668270830622,476.3814430923062 L315.3766493203949,600.9472313368606 M338.9157401929399,473.7829519559423 L347.5849495759926,598.4819688272587 M372.89763131262134,471.65882073167495 L379.8245370082417,596.466745069371 M406.9058726510881,470.0094637077441 L412.0891236431365,594.9019531102435 M440.9338312780039,468.83520257294595 L444.3724166308544,593.787898145195 M474.97487041739396,468.13626635389346 L476.6681194731059,593.1247974582925 M509.0223507420741,467.9127913703451 L508.9699332511966,592.9127803799711 M543.06963166858,468.16482120861747 L541.2715578545633,593.1518882618107 M577.1100726523359,468.8923067130863 L573.5666932095378,593.8420744684704 M611.1370344828222,470.0951059957715 L605.8490405081081,594.9832043867846 M645.1438805784778,471.7729844640112 L638.1123034364311,596.5750554520178 M679.1239782810932,473.9256148662171 L670.3501894028583,598.6173171912724 M713.0707001494361,476.55257735570103 L702.5564107652363,601.1095912840437 M746.9774252518607,479.6533595725614 L734.7246860572411,604.0513916399082 M780.8375404576468,483.2273567436132 L766.8487412135099,607.44214449333 M814.6444417268176,487.273871800342 L798.922310793326,611.281188515567 M848.3915353981843,491.79211551486014 L830.9391392026253,615.5677749436559 M882.0722394753668,496.78120665383676 L862.8929819140785,620.3010677264506 M915.6799849105404,502.240172150372 L894.7776066850205,625.4801436876833 M949.2082168856527,508.1679472937835 L926.5867947729757,631.1039927060224 M982.6503960908708,514.5633759372654 L958.3143421485579,637.1715179120824" stroke="#777777" />
  <path d="M2.0,675.0
           a2438,2438 0 0,1 1016,0
           l-26,122
           a2313,2313 0 0,0 -964,0
           l-26,-122
          "
        fill="#f1f1db" stroke="#777777" />
  <path d=" M35.35534706243271,668.1661372656131 L59.58856347637692,790.7946462765076 M68.80287822299528,661.7987581508605 L91.32118840434293,784.7537324568098 M102.33606991165328,655.8991045424268 L123.13508191372188,779.1565631392104 M135.9483818512366,650.4683271023237 L155.0240390573873,774.0042299895144 M169.6332583330476,645.5074850434662 L186.9818402478831,769.2977379131662 M203.38412949547853,641.0175459230836 L219.00225247048473,765.038004859251 M237.19441260539304,636.9993854540107 L251.07903049888188,761.2258616414638 M271.05751334201136,633.4537873338868 L283.2059181132372,757.8620517760633 M304.9668270830622,630.3814430923062 L315.3766493203949,754.9472313368606 M338.9157401929399,627.7829519559423 L347.5849495759926,752.4819688272587 M372.89763131262134,625.658820731675 L379.8245370082417,750.466745069371 M406.9058726510881,624.0094637077441 L412.0891236431365,748.9019531102435 M440.9338312780039,622.835202572946 L444.3724166308544,747.787898145195 M474.97487041739396,622.1362663538935 L476.6681194731059,747.1247974582925 M509.0223507420741,621.9127913703451 L508.9699332511966,746.9127803799711 M543.06963166858,622.1648212086175 L541.2715578545633,747.1518882618107 M577.1100726523359,622.8923067130863 L573.5666932095378,747.8420744684704 M611.1370344828222,624.0951059957715 L605.8490405081081,748.9832043867846 M645.1438805784778,625.7729844640112 L638.1123034364311,750.5750554520178 M679.1239782810932,627.9256148662171 L670.3501894028583,752.6173171912724 M713.0707001494361,630.552577355701 L702.5564107652363,755.1095912840437 M746.9774252518607,633.6533595725614 L734.7246860572411,758.0513916399082 M780.8375404576468,637.2273567436132 L766.8487412135099,761.44214449333 M814.6444417268176,641.273871800342 L798.922310793326,765.281188515567 M848.3915353981843,645.7921155148601 L830.9391392026253,769.5677749436559 M882.0722394753668,650.7812066538368 L862.8929819140785,774.3010677264506 M915.6799849105404,656.240172150372 L894.7776066850205,779.4801436876833 M949.2082168856527,662.1679472937835 L926.5867947729757,785.1039927060224 M982.6503960908708,668.5633759372654 L958.3143421485579,791.1715179120824" stroke="#777777" />
</svg>
